
    <svg xmlns="http://www.w3.org/2000/svg" viewBox="0 0 512 512">
      <!-- Background Circle -->
      <rect width="512" height="512" rx="80" fill="#FF5722"/>
      
      <!-- Stylized Lion/Narsimha Symbol -->
      <g transform="translate(256, 256)">
        <!-- Lion Face -->
        <path d="M -120 -80 L 0 -140 L 120 -80 L 100 80 L 0 120 L -100 80 Z" 
              fill="#FFFFFF" opacity="0.95"/>
        
        <!-- Eyes -->
        <circle cx="-45" cy="-20" r="25" fill="#8B0000"/>
        <circle cx="45" cy="-20" r="25" fill="#8B0000"/>
        <circle cx="-45" cy="-25" r="12" fill="#FFD700"/>
        <circle cx="45" cy="-25" r="12" fill="#FFD700"/>
        
        <!-- Crown/Third Eye -->
        <circle cx="0" cy="-70" r="15" fill="#FFD700"/>
        <path d="M -60 -100 L 0 -120 L 60 -100" 
              stroke="#FFD700" stroke-width="12" fill="none" stroke-linecap="round"/>
        
        <!-- Nose -->
        <path d="M -20 20 L 0 30 L 20 20 L 15 5 L -15 5 Z" fill="#8B0000"/>
        
        <!-- Fangs -->
        <path d="M -35 40 L -30 60 L -25 40" fill="#FFFFFF"/>
        <path d="M 25 40 L 30 60 L 35 40" fill="#FFFFFF"/>
      </g>
    </svg>
  