<svg xmlns="http://www.w3.org/2000/svg" viewBox="0 0 1920 1080">
  <defs>
    <!-- Gradient definitions -->
    <linearGradient id="divineGradient" x1="0%" y1="0%" x2="100%" y2="100%">
      <stop offset="0%" style="stop-color:#D4AF37;stop-opacity:1" />
      <stop offset="50%" style="stop-color:#C41E3A;stop-opacity:1" />
      <stop offset="100%" style="stop-color:#6B46C1;stop-opacity:1" />
    </linearGradient>
    
    <radialGradient id="glowEffect" cx="50%" cy="50%">
      <stop offset="0%" style="stop-color:#D4AF37;stop-opacity:0.8" />
      <stop offset="50%" style="stop-color:#C41E3A;stop-opacity:0.4" />
      <stop offset="100%" style="stop-color:#1E3A5F;stop-opacity:0.1" />
    </radialGradient>
    
    <!-- Pattern for mystical effect -->
    <pattern id="cosmicPattern" x="0" y="0" width="100" height="100" patternUnits="userSpaceOnUse">
      <circle cx="50" cy="50" r="1" fill="#D4AF37" opacity="0.5">
        <animate attributeName="r" values="1;3;1" dur="3s" repeatCount="indefinite" />
      </circle>
      <circle cx="20" cy="20" r="1" fill="#C41E3A" opacity="0.4">
        <animate attributeName="r" values="1;2;1" dur="2s" repeatCount="indefinite" />
      </circle>
      <circle cx="80" cy="80" r="1" fill="#6B46C1" opacity="0.3">
        <animate attributeName="r" values="1;2.5;1" dur="4s" repeatCount="indefinite" />
      </circle>
    </pattern>
  </defs>
  
  <!-- Background -->
  <rect width="1920" height="1080" fill="url(#divineGradient)" />
  
  <!-- Cosmic overlay -->
  <rect width="1920" height="1080" fill="url(#cosmicPattern)" opacity="0.3" />
  
  <!-- Central glow effect -->
  <ellipse cx="960" cy="540" rx="600" ry="400" fill="url(#glowEffect)" opacity="0.6" />
  
  <!-- Stylized Narsimha silhouette -->
  <g transform="translate(960, 540)">
    <!-- Lion-man figure outline -->
    <path d="M 0,-200 Q -50,-180 -80,-150 L -100,-100 Q -120,-50 -100,0 L -80,50 Q -60,100 -40,150 L 0,180 L 40,150 Q 60,100 80,50 L 100,0 Q 120,-50 100,-100 L 80,-150 Q 50,-180 0,-200 Z" 
          fill="none" 
          stroke="#D4AF37" 
          stroke-width="3" 
          opacity="0.8">
      <animate attributeName="stroke-width" values="3;5;3" dur="2s" repeatCount="indefinite" />
    </path>
    
    <!-- Crown/Mane effect -->
    <circle cx="0" cy="-150" r="80" fill="none" stroke="#D4AF37" stroke-width="2" opacity="0.6">
      <animate attributeName="r" values="80;90;80" dur="3s" repeatCount="indefinite" />
    </circle>
    
    <!-- Divine aura -->
    <circle cx="0" cy="0" r="250" fill="none" stroke="#C41E3A" stroke-width="1" opacity="0.4">
      <animate attributeName="r" values="250;280;250" dur="4s" repeatCount="indefinite" />
      <animate attributeName="opacity" values="0.4;0.7;0.4" dur="4s" repeatCount="indefinite" />
    </circle>
  </g>
  
  <!-- Decorative elements -->
  <g opacity="0.3">
    <!-- Top left corner decoration -->
    <path d="M 0,0 L 200,0 L 0,200 Z" fill="#D4AF37" opacity="0.2" />
    <!-- Top right corner decoration -->
    <path d="M 1920,0 L 1720,0 L 1920,200 Z" fill="#D4AF37" opacity="0.2" />
    <!-- Bottom left corner decoration -->
    <path d="M 0,1080 L 200,1080 L 0,880 Z" fill="#C41E3A" opacity="0.2" />
    <!-- Bottom right corner decoration -->
    <path d="M 1920,1080 L 1720,1080 L 1920,880 Z" fill="#C41E3A" opacity="0.2" />
  </g>
  
  <!-- Text placeholder area -->
  <rect x="660" y="740" width="600" height="100" fill="#000000" opacity="0.3" rx="10" />
  
  <!-- Placeholder text -->
  <text x="960" y="800" font-family="serif" font-size="48" fill="#D4AF37" text-anchor="middle" opacity="0.8">
    MAHAVATAR NARSIMHA
  </text>
  
  <!-- Subtitle placeholder -->
  <text x="960" y="840" font-family="sans-serif" font-size="24" fill="#FFFFFF" text-anchor="middle" opacity="0.6">
    Epic Animation Coming Soon
  </text>
</svg>